<svg width="22" height="22" viewBox="0 0 22 22" fill="none" xmlns="http://www.w3.org/2000/svg">
<path d="M19.6429 2.35714H17.2857V0.785729C17.2857 0.351776 16.9339 0 16.5 0C16.066 0 15.7143 0.351776 15.7143 0.785729V2.35714H6.28569V0.785729C6.28569 0.351776 5.93392 0 5.50001 0C5.0661 0 4.71428 0.351776 4.71428 0.785729V2.35714H2.35714C1.05533 2.35714 0 3.41247 0 4.71428V19.6429C0 20.9447 1.05533 22 2.35714 22H19.6429C20.9447 22 22 20.9447 22 19.6429V4.71428C22 3.41247 20.9447 2.35714 19.6429 2.35714ZM20.4285 19.6429C20.4285 20.0768 20.0768 20.4286 19.6428 20.4286H2.35714C1.92319 20.4286 1.57141 20.0768 1.57141 19.6429V9.42857H20.4285V19.6429ZM20.4285 7.85715H1.57141V4.71428C1.57141 4.28033 1.92319 3.92855 2.35714 3.92855H4.71428V5.49997C4.71428 5.93392 5.06606 6.28569 5.50001 6.28569C5.93396 6.28569 6.28574 5.93392 6.28574 5.49997V3.92855H15.7143V5.49997C15.7143 5.93392 16.0661 6.28569 16.5 6.28569C16.934 6.28569 17.2858 5.93392 17.2858 5.49997V3.92855H19.6429C20.0769 3.92855 20.4286 4.28033 20.4286 4.71428V7.85715H20.4285Z" fill="#89C249"/>
<path d="M6.2857 11H4.71429C4.28033 11 3.92856 11.3518 3.92856 11.7857C3.92856 12.2197 4.28033 12.5715 4.71429 12.5715H6.2857C6.71965 12.5715 7.07143 12.2197 7.07143 11.7857C7.07143 11.3518 6.71965 11 6.2857 11Z" fill="#89C249"/>
<path d="M11.7857 11H10.2143C9.78033 11 9.42856 11.3518 9.42856 11.7857C9.42856 12.2197 9.78033 12.5715 10.2143 12.5715H11.7857C12.2197 12.5715 12.5714 12.2197 12.5714 11.7857C12.5714 11.3518 12.2197 11 11.7857 11Z" fill="#89C249"/>
<path d="M17.2857 11H15.7143C15.2804 11 14.9286 11.3518 14.9286 11.7857C14.9286 12.2197 15.2804 12.5715 15.7143 12.5715H17.2857C17.7197 12.5715 18.0715 12.2197 18.0715 11.7857C18.0714 11.3518 17.7196 11 17.2857 11Z" fill="#89C249"/>
<path d="M6.2857 14.1428H4.71429C4.28033 14.1428 3.92856 14.4946 3.92856 14.9286C3.92856 15.3625 4.28033 15.7143 4.71429 15.7143H6.2857C6.71965 15.7143 7.07143 15.3625 7.07143 14.9286C7.07143 14.4946 6.71965 14.1428 6.2857 14.1428Z" fill="#89C249"/>
<path d="M11.7857 14.1428H10.2143C9.78033 14.1428 9.42856 14.4946 9.42856 14.9286C9.42856 15.3625 9.78033 15.7143 10.2143 15.7143H11.7857C12.2197 15.7143 12.5714 15.3625 12.5714 14.9286C12.5714 14.4946 12.2197 14.1428 11.7857 14.1428Z" fill="#89C249"/>
<path d="M17.2857 14.1428H15.7143C15.2804 14.1428 14.9286 14.4946 14.9286 14.9286C14.9286 15.3625 15.2804 15.7143 15.7143 15.7143H17.2857C17.7197 15.7143 18.0715 15.3625 18.0715 14.9286C18.0714 14.4946 17.7196 14.1428 17.2857 14.1428Z" fill="#89C249"/>
<path d="M6.2857 17.2857H4.71429C4.28033 17.2857 3.92856 17.6375 3.92856 18.0714C3.92856 18.5054 4.28033 18.8571 4.71429 18.8571H6.2857C6.71965 18.8571 7.07143 18.5053 7.07143 18.0714C7.07143 17.6374 6.71965 17.2857 6.2857 17.2857Z" fill="#89C249"/>
<path d="M11.7857 17.2857H10.2143C9.78033 17.2857 9.42856 17.6375 9.42856 18.0714C9.42856 18.5054 9.78033 18.8572 10.2143 18.8572H11.7857C12.2197 18.8572 12.5714 18.5054 12.5714 18.0714C12.5714 17.6375 12.2197 17.2857 11.7857 17.2857Z" fill="#89C249"/>
<path d="M17.2857 17.2857H15.7143C15.2804 17.2857 14.9286 17.6375 14.9286 18.0714C14.9286 18.5054 15.2804 18.8572 15.7143 18.8572H17.2857C17.7197 18.8572 18.0715 18.5054 18.0715 18.0714C18.0715 17.6375 17.7196 17.2857 17.2857 17.2857Z" fill="#89C249"/>
</svg>
