<svg width="119" height="120" viewBox="0 0 119 120" fill="none" xmlns="http://www.w3.org/2000/svg">
<rect x="3.5" y="0.5" width="112" height="112" rx="56" stroke="#6C7188"/>
<g filter="url(#filter0_d_50_10)">
<rect x="13" y="10" width="93" height="93" rx="46.5" fill="#89C249"/>
</g>
<path d="M74.3228 55.6446V46.1822C74.3228 45.9114 74.1977 45.6611 74.0207 45.4632L63.412 34.3231C63.214 34.1148 62.9325 34 62.6513 34H45.8316C42.7264 34 40.2461 36.5322 40.2461 39.6377V71.4428C40.2461 74.5483 42.7264 77.0389 45.8316 77.0389H59.1082C61.6195 81.2073 66.1841 84 71.3839 84C79.283 84 85.7337 77.5806 85.7337 69.6712C85.7444 62.7621 80.7837 56.9889 74.3228 55.6446ZM63.6935 37.6579L70.811 45.1504H66.1944C64.8188 45.1504 63.6935 44.0147 63.6935 42.6391V37.6579ZM45.8316 74.9546C43.883 74.9546 42.3304 73.3913 42.3304 71.4428V39.6377C42.3304 37.6785 43.883 36.0844 45.8316 36.0844H61.6092V42.6391C61.6092 45.1713 63.6622 47.2347 66.1944 47.2347H72.2384V55.3734C71.926 55.3631 71.6758 55.3318 71.4049 55.3318C67.768 55.3318 64.4229 56.7284 61.901 58.9168H48.6663C48.0929 58.9168 47.6241 59.3857 47.6241 59.9586C47.6241 60.532 48.0929 61.0008 48.6663 61.0008H59.9627C59.2227 62.043 58.6078 63.0852 58.1286 64.2315H48.6663C48.0929 64.2315 47.6241 64.7003 47.6241 65.2737C47.6241 65.8466 48.0929 66.3158 48.6663 66.3158H57.4511C57.1906 67.358 57.0552 68.5146 57.0552 69.6712C57.0552 71.5469 57.4199 73.402 58.0764 74.9653H45.8316V74.9546ZM71.3946 81.9263C64.6418 81.9263 59.1498 76.4343 59.1498 69.6815C59.1498 62.9288 64.6312 57.4367 71.3946 57.4367C78.1577 57.4367 83.639 62.9288 83.639 69.6815C83.639 76.4343 78.1474 81.9263 71.3946 81.9263Z" fill="white"/>
<path d="M48.6662 55.7802H59.2226C59.796 55.7802 60.2648 55.3109 60.2648 54.738C60.2648 54.1646 59.796 53.6958 59.2226 53.6958H48.6662C48.0928 53.6958 47.624 54.1646 47.624 54.738C47.624 55.3109 48.0928 55.7802 48.6662 55.7802Z" fill="white"/>
<path d="M77.0638 64.9919L69.1853 72.2032L65.3298 68.0139C64.9441 67.5867 64.2769 67.5661 63.8604 67.9514C63.4331 68.337 63.4121 69.0042 63.7978 69.4208L68.3621 74.3707C68.5704 74.5897 68.8519 74.7045 69.1334 74.7045C69.3833 74.7045 69.6335 74.6107 69.8418 74.4333L78.481 66.5136C78.9082 66.1279 78.9395 65.4607 78.5435 65.0442C78.1476 64.6272 77.4911 64.596 77.0638 64.9919Z" fill="white"/>
<defs>
<filter id="filter0_d_50_10" x="0" y="1" width="119" height="119" filterUnits="userSpaceOnUse" color-interpolation-filters="sRGB">
<feFlood flood-opacity="0" result="BackgroundImageFix"/>
<feColorMatrix in="SourceAlpha" type="matrix" values="0 0 0 0 0 0 0 0 0 0 0 0 0 0 0 0 0 0 127 0" result="hardAlpha"/>
<feOffset dy="4"/>
<feGaussianBlur stdDeviation="6.5"/>
<feColorMatrix type="matrix" values="0 0 0 0 0.117326 0 0 0 0 0.138241 0 0 0 0 0.258333 0 0 0 0.11 0"/>
<feBlend mode="multiply" in2="BackgroundImageFix" result="effect1_dropShadow_50_10"/>
<feBlend mode="normal" in="SourceGraphic" in2="effect1_dropShadow_50_10" result="shape"/>
</filter>
</defs>
</svg>
