<svg width="119" height="120" viewBox="0 0 119 120" fill="none" xmlns="http://www.w3.org/2000/svg">
<rect x="3.5" y="0.5" width="112" height="112" rx="56" stroke="#6C7188"/>
<g filter="url(#filter0_d_50_6)">
<rect x="13" y="10" width="93" height="93" rx="46.5" fill="#89C249"/>
</g>
<path d="M82.0894 74.9405C81.0218 74.9413 79.978 74.6254 79.0899 74.0329C78.2019 73.4403 77.5095 72.5977 77.1004 71.6116C76.6913 70.6255 76.5839 69.5402 76.7917 68.493C76.9995 67.4458 77.5132 66.4838 78.2678 65.7286C79.0225 64.9734 79.9841 64.459 81.0311 64.2505C82.0782 64.0419 83.1635 64.1486 84.1499 64.5569C85.1363 64.9653 85.9794 65.657 86.5726 66.5447C87.1658 67.4323 87.4825 68.4759 87.4825 69.5435C87.4818 70.974 86.9135 72.3457 85.9024 73.3576C84.8912 74.3695 83.5199 74.9388 82.0894 74.9405ZM82.0894 66.1152C81.4112 66.1145 80.748 66.3149 80.1837 66.6911C79.6194 67.0673 79.1794 67.6025 78.9193 68.2288C78.6592 68.8552 78.5908 69.5446 78.7226 70.2099C78.8545 70.8752 79.1807 71.4864 79.6599 71.9662C80.1392 72.4461 80.7501 72.773 81.4152 72.9056C82.0803 73.0382 82.7698 72.9705 83.3965 72.7112C84.0232 72.4518 84.5588 72.0124 84.9357 71.4485C85.3126 70.8847 85.5137 70.2217 85.5137 69.5435C85.5134 68.635 85.1526 67.7639 84.5106 67.1211C83.8686 66.4784 82.9979 66.1166 82.0894 66.1152Z" fill="white"/>
<path d="M53.6488 74.9405C52.5812 74.9415 51.5372 74.6259 50.649 74.0335C49.7608 73.4411 49.0682 72.5985 48.6589 71.6125C48.2496 70.6264 48.142 69.5411 48.3496 68.4938C48.5573 67.4465 49.0709 66.4844 49.8255 65.7291C50.58 64.9738 51.5417 64.4592 52.5887 64.2506C53.6358 64.0419 54.7212 64.1485 55.7077 64.5568C56.6942 64.9651 57.5374 65.6569 58.1307 66.5445C58.7239 67.4322 59.0406 68.4758 59.0406 69.5435C59.0395 70.9736 58.4713 72.345 57.4605 73.3567C56.4498 74.3685 55.079 74.938 53.6488 74.9405ZM53.6488 66.1152C52.9706 66.1142 52.3072 66.3144 51.7428 66.6904C51.1783 67.0665 50.7381 67.6016 50.4778 68.2279C50.2175 68.8542 50.1489 69.5437 50.2806 70.2091C50.4123 70.8744 50.7383 71.4858 51.2176 71.9658C51.6968 72.4457 52.3077 72.7728 52.9728 72.9055C53.638 73.0382 54.3276 72.9706 54.9543 72.7113C55.581 72.452 56.1168 72.0125 56.4937 71.4487C56.8706 70.8848 57.0718 70.2217 57.0718 69.5435C57.0711 68.6354 56.7104 67.7646 56.0688 67.122C55.4272 66.4793 54.5569 66.1173 53.6488 66.1152Z" fill="white"/>
<path d="M89.19 70.5278H86.4981C86.237 70.5278 85.9866 70.4241 85.802 70.2395C85.6174 70.0549 85.5137 69.8045 85.5137 69.5434C85.5137 69.2823 85.6174 69.032 85.802 68.8473C85.9866 68.6627 86.237 68.559 86.4981 68.559H88.9118V63.3392C88.9111 62.6335 88.7304 61.9396 88.3868 61.3232L83.058 51.7695C83.0125 51.688 82.9461 51.6201 82.8655 51.5728C82.785 51.5255 82.6933 51.5005 82.6 51.5005H75.3379V68.563H77.682C77.9431 68.563 78.1935 68.6667 78.3781 68.8513C78.5627 69.0359 78.6664 69.2863 78.6664 69.5473C78.6664 69.8084 78.5627 70.0588 78.3781 70.2434C78.1935 70.428 77.9431 70.5317 77.682 70.5317H74.3535C74.0924 70.5317 73.8421 70.428 73.6575 70.2434C73.4729 70.0588 73.3691 69.8084 73.3691 69.5473V50.5161C73.3691 50.255 73.4729 50.0047 73.6575 49.8201C73.8421 49.6354 74.0924 49.5317 74.3535 49.5317H82.6C83.0441 49.5315 83.4802 49.6499 83.8632 49.8746C84.2462 50.0994 84.5623 50.4223 84.7787 50.8101L90.1062 60.3651C90.6126 61.2746 90.8787 62.2982 90.8792 63.3392V68.8386C90.8785 69.2864 90.7003 69.7156 90.3837 70.0323C90.0671 70.3489 89.6378 70.5271 89.19 70.5278Z" fill="white"/>
<path d="M49.2399 70.528H39.8018C39.5407 70.528 39.2903 70.4243 39.1057 70.2397C38.9211 70.0551 38.8174 69.8047 38.8174 69.5437V61.9731C38.8174 61.7121 38.9211 61.4617 39.1057 61.2771C39.2903 61.0925 39.5407 60.9888 39.8018 60.9888C40.0628 60.9888 40.3132 61.0925 40.4978 61.2771C40.6824 61.4617 40.7861 61.7121 40.7861 61.9731V68.5593H49.2399C49.501 68.5593 49.7514 68.663 49.936 68.8476C50.1206 69.0322 50.2243 69.2826 50.2243 69.5437C50.2243 69.8047 50.1206 70.0551 49.936 70.2397C49.7514 70.4243 49.501 70.528 49.2399 70.528Z" fill="white"/>
<path d="M39.8018 58.4803C39.5407 58.4803 39.2903 58.3766 39.1057 58.192C38.9211 58.0074 38.8174 57.757 38.8174 57.496V50.8862C38.8174 50.6252 38.9211 50.3748 39.1057 50.1902C39.2903 50.0056 39.5407 49.9019 39.8018 49.9019C40.0628 49.9019 40.3132 50.0056 40.4978 50.1902C40.6824 50.3748 40.7861 50.6252 40.7861 50.8862V57.4999C40.7851 57.7603 40.6809 58.0097 40.4964 58.1934C40.3119 58.3772 40.0621 58.4803 39.8018 58.4803Z" fill="white"/>
<path d="M74.3533 70.5279H58.056C57.7949 70.5279 57.5446 70.4242 57.36 70.2396C57.1754 70.055 57.0716 69.8046 57.0716 69.5436C57.0716 69.2825 57.1754 69.0321 57.36 68.8475C57.5446 68.6629 57.7949 68.5592 58.056 68.5592H73.369V42.8066H40.7861V46.861C40.7861 47.122 40.6824 47.3724 40.4978 47.557C40.3132 47.7416 40.0628 47.8453 39.8018 47.8453C39.5407 47.8453 39.2903 47.7416 39.1057 47.557C38.9211 47.3724 38.8174 47.122 38.8174 46.861V42.6255C38.8181 42.1514 39.0068 41.6969 39.3422 41.3618C39.6776 41.0266 40.1322 40.8382 40.6063 40.8379H73.5501C74.024 40.8386 74.4783 41.0271 74.8134 41.3622C75.1485 41.6973 75.337 42.1516 75.3377 42.6255V69.5436C75.3377 69.8046 75.234 70.055 75.0494 70.2396C74.8648 70.4242 74.6144 70.5279 74.3533 70.5279Z" fill="white"/>
<path d="M43.6934 62.9575H31.1997C30.9386 62.9575 30.6883 62.8538 30.5036 62.6692C30.319 62.4846 30.2153 62.2342 30.2153 61.9731C30.2153 61.7121 30.319 61.4617 30.5036 61.2771C30.6883 61.0925 30.9386 60.9888 31.1997 60.9888H43.6934C43.9545 60.9888 44.2049 61.0925 44.3895 61.2771C44.5741 61.4617 44.6778 61.7121 44.6778 61.9731C44.6778 62.2342 44.5741 62.4846 44.3895 62.6692C44.2049 62.8538 43.9545 62.9575 43.6934 62.9575Z" fill="white"/>
<path d="M53.6488 58.4805H36.2148C35.9538 58.4805 35.7034 58.3767 35.5188 58.1921C35.3342 58.0075 35.2305 57.7572 35.2305 57.4961C35.2305 57.235 35.3342 56.9846 35.5188 56.8C35.7034 56.6154 35.9538 56.5117 36.2148 56.5117H53.6488C53.9098 56.5117 54.1602 56.6154 54.3448 56.8C54.5294 56.9846 54.6331 57.235 54.6331 57.4961C54.6331 57.7572 54.5294 58.0075 54.3448 58.1921C54.1602 58.3767 53.9098 58.4805 53.6488 58.4805Z" fill="white"/>
<path d="M35.6727 53.2827H28.8647C28.6037 53.2827 28.3533 53.179 28.1687 52.9944C27.9841 52.8098 27.8804 52.5594 27.8804 52.2983C27.8804 52.0373 27.9841 51.7869 28.1687 51.6023C28.3533 51.4177 28.6037 51.314 28.8647 51.314H35.6727C35.9338 51.314 36.1841 51.4177 36.3687 51.6023C36.5533 51.7869 36.6571 52.0373 36.6571 52.2983C36.6571 52.5594 36.5533 52.8098 36.3687 52.9944C36.1841 53.179 35.9338 53.2827 35.6727 53.2827Z" fill="white"/>
<path d="M46.589 47.8452H34.5718C34.3107 47.8452 34.0603 47.7415 33.8757 47.5569C33.6911 47.3723 33.5874 47.1219 33.5874 46.8608C33.5874 46.5998 33.6911 46.3494 33.8757 46.1648C34.0603 45.9802 34.3107 45.8765 34.5718 45.8765H46.589C46.8501 45.8765 47.1005 45.9802 47.2851 46.1648C47.4697 46.3494 47.5734 46.5998 47.5734 46.8608C47.5734 47.1219 47.4697 47.3723 47.2851 47.5569C47.1005 47.7415 46.8501 47.8452 46.589 47.8452Z" fill="white"/>
<defs>
<filter id="filter0_d_50_6" x="0" y="1" width="119" height="119" filterUnits="userSpaceOnUse" color-interpolation-filters="sRGB">
<feFlood flood-opacity="0" result="BackgroundImageFix"/>
<feColorMatrix in="SourceAlpha" type="matrix" values="0 0 0 0 0 0 0 0 0 0 0 0 0 0 0 0 0 0 127 0" result="hardAlpha"/>
<feOffset dy="4"/>
<feGaussianBlur stdDeviation="6.5"/>
<feColorMatrix type="matrix" values="0 0 0 0 0.117326 0 0 0 0 0.138241 0 0 0 0 0.258333 0 0 0 0.11 0"/>
<feBlend mode="multiply" in2="BackgroundImageFix" result="effect1_dropShadow_50_6"/>
<feBlend mode="normal" in="SourceGraphic" in2="effect1_dropShadow_50_6" result="shape"/>
</filter>
</defs>
</svg>
