<svg width="119" height="120" viewBox="0 0 119 120" fill="none" xmlns="http://www.w3.org/2000/svg">
<rect x="3.5" y="0.5" width="112" height="112" rx="56" stroke="#6C7188"/>
<g filter="url(#filter0_d_50_4)">
<rect x="13" y="10" width="93" height="93" rx="46.5" fill="#89C249"/>
</g>
<g clip-path="url(#clip0_50_4)">
<path d="M47.8017 72.2541L58.5312 79.5696C58.8252 79.7689 59.2109 79.7689 59.5045 79.5696L70.2373 72.2545C73.2509 70.1995 75.7093 65.5632 75.7093 61.9187V46.569C75.7068 46.2397 75.5175 45.9402 75.2214 45.7959L59.4018 38.0275C59.1621 37.9101 58.8815 37.9101 58.6418 38.0275L42.8206 45.7724C42.5232 45.9162 42.3335 46.2157 42.3306 46.5458V61.9187C42.3306 65.5632 44.7885 70.1995 47.8017 72.2541ZM44.0533 47.083L59.0182 39.7603L73.9865 47.1057V61.9187C73.9865 64.9546 71.7779 69.119 69.267 70.8308L59.0233 77.8153L48.7741 70.8308C46.2636 69.119 44.0533 64.9546 44.0533 61.9187V47.083Z" fill="white"/>
<path d="M45.8009 75.1759L58.5274 83.8503C58.8222 84.0501 59.2088 84.0501 59.5036 83.8503L72.2376 75.1763C76.1681 72.4967 79.2625 66.673 79.2625 61.9186V44.3658C79.2566 44.0347 79.0644 43.7357 78.7662 43.5923L59.4077 34.088C59.1671 33.9707 58.8857 33.9707 58.6452 34.088L39.2766 43.5662C38.9771 43.7088 38.7841 44.0083 38.7773 44.3397V61.9186C38.7773 66.673 41.8708 72.4967 45.8009 75.1759ZM40.5001 44.8768L59.0203 35.8209L77.5401 44.902V61.9186C77.5401 66.1624 74.7772 71.3606 71.2682 73.753L59.0271 82.096L46.7754 73.7526C43.2672 71.361 40.5001 66.1624 40.5001 61.9186V44.8768Z" fill="white"/>
<path d="M55.9839 66.9352C56.1458 67.0963 56.3658 67.1854 56.5941 67.1829H56.5963C56.8234 67.1858 57.0429 67.0975 57.2053 66.9385L69.4439 54.7033C69.6058 54.5422 69.6966 54.3235 69.6966 54.0951C69.6966 53.8667 69.6058 53.648 69.4439 53.4869L67.0077 51.0517C66.6713 50.7152 66.1258 50.7152 65.7893 51.0517L56.611 60.2304L52.2653 55.8419C51.9306 55.5037 51.385 55.5012 51.0469 55.836L48.5986 58.2603C48.4362 58.4214 48.3445 58.6401 48.3433 58.8685C48.3424 59.0956 48.432 59.3139 48.5927 59.475L55.9839 66.9352ZM51.6471 57.6669L55.9961 62.0701C56.1559 62.2362 56.3754 62.3326 56.6059 62.3372H56.608C56.8381 62.333 57.0568 62.2379 57.2171 62.073L66.3987 52.8859L67.6168 54.101L56.5992 65.1173L50.4231 58.8803L51.6471 57.6669Z" fill="white"/>
</g>
<defs>
<filter id="filter0_d_50_4" x="0" y="1" width="119" height="119" filterUnits="userSpaceOnUse" color-interpolation-filters="sRGB">
<feFlood flood-opacity="0" result="BackgroundImageFix"/>
<feColorMatrix in="SourceAlpha" type="matrix" values="0 0 0 0 0 0 0 0 0 0 0 0 0 0 0 0 0 0 127 0" result="hardAlpha"/>
<feOffset dy="4"/>
<feGaussianBlur stdDeviation="6.5"/>
<feColorMatrix type="matrix" values="0 0 0 0 0.117326 0 0 0 0 0.138241 0 0 0 0 0.258333 0 0 0 0.11 0"/>
<feBlend mode="multiply" in2="BackgroundImageFix" result="effect1_dropShadow_50_4"/>
<feBlend mode="normal" in="SourceGraphic" in2="effect1_dropShadow_50_4" result="shape"/>
</filter>
<clipPath id="clip0_50_4">
<rect width="50" height="50" fill="white" transform="translate(34 34)"/>
</clipPath>
</defs>
</svg>
