<svg width="119" height="120" viewBox="0 0 119 120" fill="none" xmlns="http://www.w3.org/2000/svg">
<rect x="3.5" y="0.5" width="112" height="112" rx="56" stroke="#6C7188"/>
<g filter="url(#filter0_d_49_2)">
<rect x="13" y="10" width="93" height="93" rx="46.5" fill="#89C249"/>
</g>
<path d="M64.3276 46.0169C62.9111 44.6006 60.6186 44.6004 59.2019 46.0169L53.2982 51.9207L51.824 50.4467C50.4133 49.036 48.1261 49.0312 46.7098 50.4474C45.2999 51.8575 45.2999 54.1527 46.7098 55.5628L52.6159 61.471C53.0468 61.9019 53.7228 61.8887 54.14 61.466L64.344 51.1261C65.7391 49.7132 65.7317 47.4212 64.3276 46.0169V46.0169ZM62.8151 49.617L53.3707 59.1835L48.2289 54.0418C47.6566 53.4694 47.6566 52.5381 48.2289 51.9657C48.8024 51.3923 49.7311 51.3919 50.3049 51.9657L52.5385 54.1995C52.9578 54.6187 53.6382 54.619 54.0577 54.1995L60.7209 47.5361C61.2976 46.9592 62.2316 46.9591 62.8083 47.5361C63.3803 48.108 63.3833 49.0415 62.8151 49.617V49.617Z" fill="white"/>
<path d="M81.456 71.2266L70.9342 62.2052C74.9094 55.2687 73.7652 46.49 68.0823 40.8069C61.1393 33.8642 49.9016 33.8635 42.9579 40.807C36.0152 47.7498 36.0141 58.9882 42.9579 65.9319C48.7725 71.747 57.5223 72.6474 64.2536 68.841L72.9184 79.5315C75.1472 82.2812 79.2743 82.5123 81.7921 79.9945C84.2525 77.534 84.0975 73.4912 81.456 71.2266V71.2266ZM44.4771 64.4119C38.374 58.3089 38.3729 48.43 44.4771 42.3258C50.58 36.2229 60.4591 36.2219 66.563 42.3258C73.5167 49.2797 72.4168 61.1015 63.9226 66.5358C63.9224 66.5359 63.9221 66.5362 63.9219 66.5363C57.9557 70.3516 49.8267 69.7619 44.4771 64.4119V64.4119ZM80.2728 78.4751C78.6665 80.0816 76.0207 79.9469 74.5873 78.1785L66.0671 67.6664C67.4866 66.615 68.738 65.3612 69.7441 64.0147L80.0577 72.8576C81.7435 74.3031 81.8616 76.8866 80.2728 78.4751V78.4751Z" fill="white"/>
<defs>
<filter id="filter0_d_49_2" x="0" y="1" width="119" height="119" filterUnits="userSpaceOnUse" color-interpolation-filters="sRGB">
<feFlood flood-opacity="0" result="BackgroundImageFix"/>
<feColorMatrix in="SourceAlpha" type="matrix" values="0 0 0 0 0 0 0 0 0 0 0 0 0 0 0 0 0 0 127 0" result="hardAlpha"/>
<feOffset dy="4"/>
<feGaussianBlur stdDeviation="6.5"/>
<feColorMatrix type="matrix" values="0 0 0 0 0.117326 0 0 0 0 0.138241 0 0 0 0 0.258333 0 0 0 0.11 0"/>
<feBlend mode="multiply" in2="BackgroundImageFix" result="effect1_dropShadow_49_2"/>
<feBlend mode="normal" in="SourceGraphic" in2="effect1_dropShadow_49_2" result="shape"/>
</filter>
</defs>
</svg>
